# xmcd
#
# Track frame offsets:
#  150
#  28032
#  42324
#  55470
#  67860
#  81485
#  95879
#  110998
#  125710
#  139103
#  153185
#  166160
#  180551
#  192571
#  204700
#  217589
#  230614
#  243852
#
# Disc length: 3429 seconds
#
# Revision: 2
# Processed by: cddbd v1.5.1PL2 Copyright (c) Steve Scherf et al.
# Submitted via: Collectorz.com_Music_Collector 6.11
#
DISCID=070d6312
DTITLE=Charley Patton - BD Blues [CD2) [CD2)
DYEAR=2001
DGENRE=Blues
TTITLE0=High Water Evrywhere Part 1&2
TTITLE1=Green River Blues
TTITLE2=Running Wild Blues
TTITLE3=Rattlesnake Blues
TTITLE4=I Shall Not Be Move
TTITLE5=Bird Nest Bound
TTITLE6=Dry Well Blues
TTITLE7=Moon Going Down
TTITLE8=34 Blues
TTITLE9=Jersey Bull Blues
TTITLE10=Stone Pony Blues
TTITLE11=High Sheriff Blues
TTITLE12=Revenue Man Blues
TTITLE13=Hang It On The Wall
TTITLE14=Yellow Bee
TTITLE15=Mind Reader Blue
TTITLE16=Love My Stuff
TTITLE17=Poor Me
EXTD=
EXTT0=
EXTT1=
EXTT2=
EXTT3=
EXTT4=
EXTT5=
EXTT6=
EXTT7=
EXTT8=
EXTT9=
EXTT10=
EXTT11=
EXTT12=
EXTT13=
EXTT14=
EXTT15=
EXTT16=
EXTT17=
PLAYORDER=
